<svg xmlns="http://www.w3.org/2000/svg" width="40" height="40" viewBox="0 0 40 40"><defs><clipPath id="a"><circle cx="20" cy="20" r="20" transform="translate(300 20)" fill="#4e4a68"/></clipPath><style>.d{fill:#d65252}.e{fill:#ffbc7d}.f{fill:#cca687}.h{fill:#9fc9d6}.i{fill:#50666d}</style></defs><g transform="translate(-300 -20)" clip-path="url(#a)"><circle cx="20" cy="20" r="20" transform="translate(300 20)" fill="#457cd3"/><g transform="translate(307 19)"><path class="d" d="M5.427 44.326h15.966c-4.744-14.718-4.873-27.051.173-29.367a.881.881 0 00-.883-.823H6.17a.881.881 0 00-.883.839c5.017 2.355 4.875 14.66.14 29.351z"/><path class="e" d="M16.889 44.326V13.248a.881.881 0 00-.883-.879h-5.152a.881.881 0 00-.883.879v31.079z"/><path class="f" d="M13.307 27.6q.208.494.4 1l.192.5.184.5q.368 1.007.691 2.032c.106.343.21.686.3 1.034s.185.7.252 1.064a4.636 4.636 0 01.055.439 1.2 1.2 0 010 .182.662.662 0 01-.027.13l-.017.044a.439.439 0 01-.029.053.446.446 0 01-.048.064.391.391 0 01-.08.066.374.374 0 01-.109.047.387.387 0 01-.11.012.435.435 0 01-.147-.031.551.551 0 01-.139-.083c-.069-.057-.085-.077-.122-.109l-.1-.092-.784-.732.571-.393c.04.092.074.171.1.255s.063.167.093.25q.09.25.169.5a18.162 18.162 0 01.504 2.039c.063.343.126.677.183 1.021s.113.686.147 1.042a5.321 5.321 0 01.029.553 1.672 1.672 0 01-.032.323.731.731 0 01-.088.225.463.463 0 01-.139.146.441.441 0 01-.234.073.5.5 0 01-.18-.029.646.646 0 01-.115-.054 1.085 1.085 0 01-.152-.111 2.21 2.21 0 01-.211-.22c-.063-.073-.113-.137-.168-.2l-.162-.2-.647-.805.474-.146c-.01.085-.018.186-.024.281s-.01.194-.015.293c-.007.2-.01.392-.01.586 0 .394.016.789.036 1.184l.074 1.194.074 1.2c-.1-.388-.181-.781-.258-1.172s-.147-.786-.215-1.181-.119-.8-.157-1.2c-.017-.2-.031-.4-.04-.607 0-.1-.007-.2-.007-.307s0-.2.005-.316l.031-.636.442.488 1.2 1.323a.216.216 0 00-.113.035.2.2 0 00-.053.052c-.011.018 0 0 0-.018a1.173 1.173 0 00.009-.19 4.4 4.4 0 00-.041-.475c-.045-.327-.1-.659-.167-1l-.2-1.008a21.33 21.33 0 00-.639-2.444l-.082-.236a6.526 6.526 0 00-.085-.225l-.651-1.606 1.228 1.215.762.753.17.168-.027-.012a.255.255 0 00-.083-.016.276.276 0 00-.155.042.25.25 0 00-.054.045.22.22 0 00-.029.037.151.151 0 00-.012.024l-.005.013a1.058 1.058 0 000-.2 4.552 4.552 0 00-.026-.245c-.046-.336-.112-.683-.185-1.025s-.147-.691-.23-1.037c-.158-.692-.328-1.384-.492-2.077l-.126-.52-.123-.521c-.069-.352-.151-.699-.231-1.048z"/><path class="d" d="M1.12.068c.113-.692 6.542 3.97 8.636 11.13S-2.216 20.635 1.12.068z"/><path class="e" d="M1.251 1.508Q.937 2.582.696 3.578c-.869 11.569 4.71 14 7.607 12.188a4.716 4.716 0 00.117-2.14C7.245 6.261 1.452.835 1.251 1.508z"/><path class="f" d="M4.102 15.133l-.442-.488-.028.571.086.073.018.015.147.116.008.006a3.673 3.673 0 00.326.22l.015.01.147.089.017.01q.166.094.333.171h.007l.141.061zM5.819 16.255a3.518 3.518 0 01-.216-.039h-.011q-.081-.017-.155-.037h-.018a3.901 3.901 0 01-.29-.089 5.328 5.328 0 00-.026-.225 17.23 17.23 0 00-.167-1l-.194-1a22.71 22.71 0 00-.487-1.964c-.049-.16-.1-.321-.152-.48l-.082-.236a4.49 4.49 0 00-.085-.224L3.279 9.35l1.228 1.214.531.525c-.045-.31-.105-.626-.172-.941q-.108-.518-.23-1.037c-.158-.692-.328-1.383-.492-2.077l-.126-.518-.124-.521c-.083-.346-.163-.695-.243-1.043q.208.494.4 1l.2.5.186.5q.367 1.007.691 2.032c.106.342.212.685.3 1.033s.185.7.251 1.064c.017.092.032.186.043.285a1.257 1.257 0 01.013.154 1.2 1.2 0 010 .182.623.623 0 01-.028.13.398.398 0 01-.017.044.467.467 0 01-.028.053.443.443 0 01-.048.064.369.369 0 01-.079.066.385.385 0 01-.109.048.4.4 0 01-.258-.02.557.557 0 01-.1-.056q.1.333.18.669c.082.339.158.686.221 1.025s.128.678.185 1.021.112.686.147 1.042c.004.149.014.305.018.467zm-.745-4.641c-.003.011-.001.008 0 0z"/><path class="d" d="M24.7.068c-.112-.692-6.542 3.97-8.636 11.13S28.036 20.635 24.7.068z"/><path class="e" d="M24.567 1.508q.317 1.074.557 2.07c.868 11.569-4.711 14-7.607 12.188a4.716 4.716 0 01-.117-2.14C18.575 6.261 24.368.835 24.567 1.508z"/><path class="f" d="M22.017 15.133l.442-.488.028.571-.086.073-.018.015-.147.116-.007.006a3.8 3.8 0 01-.327.22l-.015.01c-.049.031-.1.061-.147.089l-.017.01q-.166.094-.333.171h-.007l-.141.061zM20.328 15.783c.035-.356.089-.7.147-1.042s.121-.678.184-1.021.136-.685.221-1.025q.084-.337.181-.669a.543.543 0 01-.1.056.444.444 0 01-.147.032.456.456 0 01-.11-.012.377.377 0 01-.108-.048.346.346 0 01-.079-.066.391.391 0 01-.049-.064.548.548 0 01-.028-.053.398.398 0 01-.017-.044.668.668 0 01-.027-.13 1.109 1.109 0 010-.182c0-.054.007-.1.013-.154.011-.1.026-.193.042-.285.066-.367.157-.716.252-1.064s.2-.691.3-1.033q.323-1.026.691-2.032l.184-.5.192-.5q.192-.5.4-1c-.079.349-.159.7-.243 1.043l-.123.521-.127.519c-.163.694-.333 1.385-.492 2.077q-.121.518-.23 1.037c-.067.315-.127.631-.172.941l.531-.525 1.23-1.218-.662 1.607c-.027.066-.058.146-.086.224l-.082.236c-.054.159-.1.319-.152.48-.1.321-.185.645-.266.975s-.157.658-.221.989l-.2 1.008c-.063.338-.122.669-.167 1a7.46 7.46 0 00-.026.225c-.1.033-.194.063-.29.089h-.018c-.052.014-.1.026-.155.037h-.011a3.179 3.179 0 01-.215.039c.007-.158.021-.314.035-.468zm.713-4.169c0 .007 0 0 0 0z"/><path class="d" d="M13.419 10.265C6.74 10.265 1.181 13.459 0 17.679c3.774-1.094 7.352-.592 9.526 1.708a7.5 7.5 0 011.929 5.219h3.928a7.487 7.487 0 011.93-5.219c2.173-2.3 5.752-2.8 9.525-1.708-1.181-4.22-6.739-7.414-13.419-7.414z"/><rect class="d" width="3.925" height="12.009" rx="1.963" transform="translate(11.457 15.591)"/><path class="e" d="M15.383 24.603a7.487 7.487 0 011.93-5.219c2.173-2.3 5.752-2.8 9.525-1.708a.2.2 0 00-.006-.02 6.451 6.451 0 00-7.672-2.665c-3.18 1.132-3.771 6.118-3.777 9.612zM9.526 19.387a7.5 7.5 0 011.929 5.219h.008c-.007-3.5-.6-8.483-3.779-9.611A6.471 6.471 0 000 17.679c3.774-1.094 7.352-.592 9.526 1.708z"/><path d="M10.987 24.998c0-1.847 4.864-1.847 4.864 0s-1.089 3.344-2.429 3.344-2.435-1.497-2.435-3.344z" fill="#607882"/><path class="h" d="M12.903 27.954a2.862 2.862 0 01-1.382-2.645c0-1.519 3.935-1.541 4.058-.073v-.154c0-1.634-4.3-1.634-4.3 0a2.942 2.942 0 001.624 2.872z"/><ellipse class="i" cx=".838" cy="1.426" rx=".838" ry="1.426" transform="translate(11.271 11.723)"/><ellipse class="i" cx=".838" cy="1.426" rx=".838" ry="1.426" transform="translate(13.892 11.723)"/><ellipse class="h" cx=".263" cy=".447" rx=".263" ry=".447" transform="translate(11.572 12.06)"/><ellipse class="h" cx=".263" cy=".447" rx=".263" ry=".447" transform="translate(14.204 12.06)"/></g></g></svg>