<svg xmlns="http://www.w3.org/2000/svg" width="40" height="40" viewBox="0 0 40 40"><defs><clipPath id="a"><circle cx="20" cy="20" r="20" transform="translate(300 20)" fill="#4e4a68"/></clipPath><style>.d{fill:#64adc8}.e{fill:#fff0ab}.g{fill:#50666d}.h{fill:#9fc9d6}</style></defs><g transform="translate(-300 -20)" clip-path="url(#a)"><circle cx="25" cy="25" r="25" transform="translate(294 14)" fill="#fc7eb9"/><g transform="translate(308 20)"><path class="d" d="M19.709 23.845v-9.314a2.483 2.483 0 00-2.489-2.462v11.776zM22.496 26.553l1.887-9.122a2.47 2.47 0 00-1.938-2.905l-2.39 11.537zM24.32 30.986l3.64-8.589a2.461 2.461 0 00-1.334-3.223l-4.6 10.86zM24.23 36.533l5.682-7.425a2.453 2.453 0 00-.481-3.45l-7.184 9.388z"/><path class="d" d="M20.233 22.071a6.41 6.41 0 00-3.012.76v17.58a6.407 6.407 0 003.012.76c4.248 0 7.563-4.276 7.563-9.55s-3.315-9.55-7.563-9.55z"/><path class="d" d="M18.466 24.92a9.449 9.449 0 00-1.245.08v8.391a3.586 3.586 0 01-7.168 0h-.888c-.02.251-.031.5-.031.761a9.331 9.331 0 109.332-9.235z"/><path class="e" d="M18.466 27.14a9.441 9.441 0 00-1.245.082v8.391a3.586 3.586 0 01-7.168 0h-.888c-.02.251-.031.5-.031.762a9.331 9.331 0 109.332-9.235z"/><path class="e" d="M26.769 31.831h1.026v4.41h-1.026z"/><path class="e" d="M20.233 22.071a6.41 6.41 0 00-3.012.76v17.58a6.407 6.407 0 003.012.76c4.248 0 7.563-4.276 7.563-9.55s-3.315-9.55-7.563-9.55z"/><ellipse class="d" cx="7.919" cy="18.376" rx="7.919" ry="18.376" transform="translate(0 34.386)"/><path d="M10.385.215a3.566 3.566 0 00-4.561 2.094l-.427 1.358a9.126 9.126 0 00-.5 4.168c.141.676.374 1.523.374 1.523.945 6.589.683 19.871-.687 35.377a3.158 3.158 0 002.892 3.41c.092.008.184.012.276.012a3.163 3.163 0 003.183-3.144c0-.092 0-.185-.012-.277-1.37-15.507-1.723-27.854-.779-34.443a1.544 1.544 0 01.446-.962 2.1 2.1 0 00.478-.641 25.312 25.312 0 00.9-2.521c.225-.694.517-1.542.517-1.542a3.474 3.474 0 00-2.1-4.412z" fill="#907cd8"/><path class="g" d="M7.176 3.189c.203-.7.704-1.169 1.117-1.05s.58.78.376 1.478-.705 1.168-1.118 1.048-.577-.777-.375-1.476zM9.511 3.859c.203-.7.704-1.169 1.117-1.05s.58.78.376 1.478-.705 1.168-1.118 1.048-.577-.777-.375-1.476z"/><path class="h" d="M7.608 2.696c.064-.219.22-.366.35-.328s.182.244.118.461-.22.367-.35.33-.18-.245-.118-.463zM9.971 3.38c.064-.218.221-.365.35-.327s.182.243.117.462-.221.365-.35.328-.18-.245-.117-.463z"/><path class="g" d="M5.565 5.818c.178-.593 1.516-.72 2.984-.285s2.513 1.268 2.333 1.862-1.516.718-2.984.284-2.51-1.268-2.333-1.861z"/><path class="h" d="M8.545 5.535c-1.469-.434-2.805-.307-2.984.286l5.319 1.574c.18-.597-.866-1.43-2.335-1.86z"/><path class="e" d="M10.382 9.587a2.939 2.939 0 01-3.037.857 3.954 3.954 0 01-2.428-2.515c.142.656.354 1.431.354 1.431.176 1.228.311 2.69.4 4.355.6 1.216 1.386 2.014 2.247 2.014.644 0 1.271-.608 1.844-1.521a47.58 47.58 0 01.374-3.914 1.739 1.739 0 01.246-.707z"/><ellipse class="e" cx="7.739" cy="18.376" rx="7.739" ry="18.376" transform="translate(.181 38.304)"/></g></g></svg>