<svg xmlns="http://www.w3.org/2000/svg" viewBox="0 0 888.91 888.91"><defs><clipPath id="clip-path"><circle cx="444.46" cy="444.46" r="444.46" fill="none"/></clipPath><style>.cls-6{fill:#89596b}.cls-7{fill:#be7584}.cls-8{fill:#d59288}.cls-9{fill:#50666d}.cls-10{fill:#9fc9d6}</style></defs><g id="Layer_2" data-name="Layer 2"><g id="Layer_9" data-name="Layer 9"><circle cx="444.46" cy="444.46" r="444.46" fill="#cceb83"/><circle cx="444.46" cy="444.46" r="444.46" fill="#fff0ab"/></g><g id="Moose"><g clip-path="url(#clip-path)"><path d="M314.78 397.24h479.35a9 9 0 019 9v650.37a248.65 248.65 0 01-248.65 248.65 248.65 248.65 0 01-248.65-248.65v-650.4a9 9 0 019-9z" transform="rotate(180 554.455 851.235)" fill="#a45858"/><path class="cls-6" d="M363.33 300h-62.58a16.87 16.87 0 01-16.82-16.58V155.45a16.87 16.87 0 00-16.82-16.82 16.87 16.87 0 00-16.83 16.82V219a16.87 16.87 0 01-16.82 16.82A16.87 16.87 0 01216.64 219v-63.69a16.87 16.87 0 00-16.82-16.82A16.87 16.87 0 00183 155.31V219a16.87 16.87 0 01-16.82 16.82A16.87 16.87 0 01149.35 219v-22h-.15v-41.55a16.88 16.88 0 00-16.83-16.82 16.87 16.87 0 00-16.82 16.82v130.93a47.54 47.54 0 0047.39 47.4l90.52-.15h109.87a16.87 16.87 0 0016.82-16.82A16.87 16.87 0 00363.33 300zM525.58 300h62.58A16.87 16.87 0 00605 283.4V155.45a16.87 16.87 0 0116.82-16.82 16.87 16.87 0 0116.83 16.82V219a16.87 16.87 0 0016.82 16.82 16.87 16.87 0 0016.8-16.82v-63.69a16.87 16.87 0 0116.83-16.82 16.87 16.87 0 0116.82 16.82V219a16.87 16.87 0 0016.82 16.82A16.88 16.88 0 00739.57 219v-22h.15v-41.55a16.87 16.87 0 0116.82-16.82 16.87 16.87 0 0116.82 16.82v130.93a47.54 47.54 0 01-47.36 47.4l-90.51-.15H525.58a16.87 16.87 0 01-16.82-16.82A16.87 16.87 0 01525.58 300z"/><path class="cls-6" d="M396.45 244.72h96.47a46.8 46.8 0 0146.8 46.8v124.66a12 12 0 01-12 12H361.65a12 12 0 01-12-12V291.52a46.8 46.8 0 0146.8-46.8z"/><path class="cls-6" d="M349.62 332v341.12c0 35.22 42.55 63.77 95.05 63.77 52.49 0 95.05-28.55 95.05-63.77V332"/><path class="cls-7" d="M447.08 804h57.07a13.68 13.68 0 0113.68 13.68v6.44a14.55 14.55 0 01-14.55 14.55h-55.34a14.55 14.55 0 01-14.55-14.55v-6.44A13.68 13.68 0 01447.08 804z"/><path class="cls-8" d="M444.67 621.65a60.41 60.41 0 0160.41 60.41v92.28a41.94 41.94 0 01-41.94 41.94H426.2a41.94 41.94 0 01-41.94-41.94v-92.27a60.41 60.41 0 0160.41-60.41z"/><path class="cls-7" d="M444.67 389.72a52.08 52.08 0 0152.08 52.08v256.61A16.76 16.76 0 01480 715.17h-70.65a16.76 16.76 0 01-16.76-16.76V441.8a52.08 52.08 0 0152.08-52.08z"/><path class="cls-8" d="M444.67 594.73a95.05 95.05 0 0195.05 95.05v43.94a30.59 30.59 0 01-30.59 30.59H380.21a30.59 30.59 0 01-30.59-30.59v-43.94a95.05 95.05 0 0195.05-95.05z" transform="rotate(180 444.665 679.515)"/><path class="cls-6" d="M349.62 662.86v6.4a94.94 94.94 0 0034.52 73.14c.08-1.76.13-3.52.13-5.31 0-33.37-14.37-62.16-34.65-74.23zM539.72 663c-20.17 12.15-34.43 40.84-34.43 74.09 0 1.73 0 3.43.12 5.13a95 95 0 0034.31-73z"/></g><path class="cls-6" d="M320.55 447.27c40.25-37.66 53.81-88.57 30.28-113.7L205.09 469.93c23.53 25.14 75.22 14.99 115.46-22.66zM569.44 447.27c-40.25-37.66-53.8-88.57-30.28-113.7L684.9 469.93c-23.52 25.14-75.22 14.99-115.46-22.66z"/><ellipse class="cls-9" cx="428.62" cy="365.32" rx="11.38" ry="19.48"/><ellipse class="cls-9" cx="464.24" cy="365.32" rx="11.38" ry="19.48"/><ellipse class="cls-10" cx="424.9" cy="356.54" rx="3.57" ry="6.1"/><ellipse class="cls-10" cx="460.67" cy="356.54" rx="3.57" ry="6.1"/><rect class="cls-8" x="362.38" y="311.17" width="85.01" height="34.67" rx="12"/><rect class="cls-8" x="444.77" y="281.57" width="85.01" height="34.67" rx="12"/></g></g></svg>