<svg xmlns="http://www.w3.org/2000/svg" width="40" height="40" viewBox="0 0 40 40"><defs><clipPath id="a"><circle cx="20" cy="20" r="20" fill="#4e4a68"/></clipPath><clipPath id="b"><path fill="none" d="M0 0h32.571v39.528H0z"/></clipPath><style>.f{fill:#f9894c}.h{fill:#d67b63}.k{fill:#9fc9d6}.l{fill:#5b4b3d}.m{fill:#50666d}</style></defs><g clip-path="url(#a)"><ellipse cx="26" cy="25.5" rx="26" ry="25.5" transform="translate(-8 -5)" fill="#fcf064"/><g clip-path="url(#b)" transform="translate(4 6)"><g transform="translate(-.222 -.009)"><path class="f" d="M4.948 7.039c.713-.656 1.556-.922 1.885-.591s.015 1.125-.7 1.779-1.555.92-1.881.593-.018-1.127.696-1.781zM22.843 6.567c.292-.294 1.046-.056 1.682.53s.914 1.299.621 1.593-1.045.055-1.68-.53-.917-1.3-.623-1.593z"/><path class="f" d="M10.867 39.528h18.72a139.7 139.7 0 01-6.017-34.91A4.913 4.913 0 0018.62.001l-8.387.076A4.9 4.9 0 005.542 5.34a156.308 156.308 0 005.325 34.188z"/><path d="M27.115 39.527a142.006 142.006 0 01-5.591-29.572 4.966 4.966 0 00-5.125-4.513l-3.637.157a4.841 4.841 0 00-4.5 5.341 154.141 154.141 0 005.057 28.587z" fill="#ffb376"/><path class="f" d="M16.562 14.25q.255.583.489 1.173l.235.59.225.593q.45 1.188.844 2.395c.13.4.256.809.372 1.219s.227.821.307 1.254a4.222 4.222 0 01.067.517 1.381 1.381 0 01-.005.215.713.713 0 01-.034.154.566.566 0 01-.021.052.55.55 0 01-.034.063.518.518 0 01-.058.075.471.471 0 01-.1.078.5.5 0 01-.133.056.522.522 0 01-.138.016.548.548 0 01-.18-.037.7.7 0 01-.171-.1c-.084-.067-.1-.091-.148-.129l-.12-.108-.958-.863.7-.463c.049.109.09.2.126.3s.077.2.113.294a17.423 17.423 0 01.553 1.785c.103.4.193.8.27 1.208s.155.8.225 1.2.138.809.18 1.228a5.812 5.812 0 01.037.652 1.9 1.9 0 01-.04.381.843.843 0 01-.107.265.565.565 0 01-.17.173.555.555 0 01-.287.086.632.632 0 01-.219-.035.777.777 0 01-.14-.064 1.292 1.292 0 01-.185-.131 2.67 2.67 0 01-.258-.259 3.92 3.92 0 01-.2-.242l-.193-.23-.789-.949.578-.173c-.013.1-.022.219-.029.331s-.013.229-.018.345c-.01.23-.013.462-.013.69 0 .464.019.93.044 1.4l.09 1.408.09 1.41c-.12-.457-.221-.92-.316-1.381s-.18-.927-.263-1.392-.145-.94-.191-1.415a16.864 16.864 0 01-.049-.716c-.005-.12-.008-.241-.009-.362s0-.238.006-.373l.038-.75.54.575 1.47 1.554a.267.267 0 00-.139.041.236.236 0 00-.065.061c-.013.021 0 .005 0-.021a1.323 1.323 0 00.012-.224 4.833 4.833 0 00-.051-.56c-.055-.386-.127-.777-.2-1.174l-.24-1.188c-.078-.391-.172-.777-.27-1.166s-.2-.771-.325-1.15a16.971 16.971 0 00-.286-.843l-.1-.265-.8-1.894 1.5 1.432.931.887.207.2-.032-.014a.321.321 0 00-.1-.019.359.359 0 00-.09.01.334.334 0 00-.162.093.3.3 0 00-.034.043.169.169 0 00-.014.028.057.057 0 00-.006.016 1.082 1.082 0 000-.233 3.85 3.85 0 00-.031-.289c-.057-.4-.137-.805-.226-1.208s-.18-.815-.281-1.222c-.193-.816-.4-1.631-.6-2.449l-.154-.613-.151-.614a22.115 22.115 0 01-.316-1.228zM11.257 10.584c.5-.086 1.005-.144 1.508-.194a37.041 37.041 0 011.507-.115l.3-.016.021.324q.021.317.034.634c.012.212.018.424.025.635l-.53-.337c.254-.115.513-.223.769-.334s.515-.217.775-.321q.777-.314 1.565-.6l.083-.03h.063c.223.007.45.018.67.028h.047c.012 0 .048.008.074.01l.09.008h.18a2.114 2.114 0 00.36-.04 1.678 1.678 0 00.334-.109 1.377 1.377 0 00.3-.185 1.583 1.583 0 00.435-.587 3.256 3.256 0 00.228-.76 2.361 2.361 0 01.015.827 1.691 1.691 0 01-.36.808 1.776 1.776 0 01-.779.537 2.338 2.338 0 01-.464.117 2.7 2.7 0 01-.238.023h-.124a1.114 1.114 0 01-.136-.005h.047c-.223.009-.45.021-.67.028l.146-.028q-.764.345-1.54.664c-.258.108-.519.21-.778.314s-.521.2-.784.3l-.548.2.018-.538c.007-.211.014-.423.025-.635s.021-.423.034-.634l.322.309c-.251-.013-.5-.032-.754-.05s-.5-.041-.754-.065a16.33 16.33 0 01-1.516-.183z"/><path class="h" d="M11.257 9.314a16.9 16.9 0 011.819-.706c.307-.1.615-.2.925-.29.155-.046.31-.086.466-.133s.311-.086.468-.126l.067-.017.09.011c.463.056.925.127 1.386.2s.919.161 1.376.259l.171.036h.029l.027.006c.021 0 .04.007.063.008a1.023 1.023 0 00.262-.009.88.88 0 00.472-.23 1.525 1.525 0 00.334-.5c.044-.1.073-.2.112-.31s.055-.217.09-.329c.022.112.039.226.055.345 0 .116.01.234 0 .353a1.7 1.7 0 01-.07.359.853.853 0 01-.067.18l-.044.086a.439.439 0 01-.05.086 1.288 1.288 0 01-.663.513 1.615 1.615 0 01-.21.059 1.815 1.815 0 01-.218.026h-.23l-.174-.016c-.465-.041-.927-.1-1.388-.158s-.92-.132-1.378-.215l.154-.006-.475.1a8.376 8.376 0 01-.478.086c-.318.058-.638.108-.959.155a17.378 17.378 0 01-1.962.177z"/><path stroke="#d67b63" stroke-miterlimit="10" stroke-width="8" fill="none" d="M15.028 7.187v1.238"/><path d="M17.681 5.659c0 1.944-5.305 1.944-5.305 0s1.187-3.517 2.65-3.517 2.655 1.574 2.655 3.517z" fill="#607882"/><path class="k" d="M12.994 5.782c0-1.717 1.049-3.107 2.342-3.107a1.849 1.849 0 01.879.227 1.927 1.927 0 00-1.2-.438c-1.293 0-2.338 1.391-2.338 3.107a1.081 1.081 0 00.685.942.943.943 0 01-.368-.731z"/><path class="h" d="M1.736 27.929a2.264 2.264 0 002 .69 21.535 21.535 0 003.12-.743 14.017 14.017 0 002.248-.928 2.242 2.242 0 001.185-2.271 6.263 6.263 0 00-1.418-3.215c-2-2.39-5.267-2.954-7.31-1.253s-2.084 5.021-.09 7.414q.127.159.265.306z"/><path class="l" d="M9.499 26.686a4.127 4.127 0 00-.079-.354 5.653 5.653 0 00-.253-.716 9.133 9.133 0 00-.709-1.32 10.8 10.8 0 00-.426-.613c-.075-.1-.15-.2-.228-.3s-.157-.193-.242-.285c.231.437.45.873.655 1.316a12.79 12.79 0 01.539 1.339 6.6 6.6 0 01.186.68 3.9 3.9 0 01.073.556l.09-.046a2.192 2.192 0 00.394-.257zM6.587 27.811a.684.684 0 01-.05.051l-.061.054c-.041.037-.085.074-.125.112.164-.048.331-.1.5-.152.141-.044.279-.091.414-.138a1.928 1.928 0 00.121-.777 3.51 3.51 0 00-.127-.771 5.532 5.532 0 00-.253-.716 8.97 8.97 0 00-.709-1.319c-.136-.21-.276-.414-.426-.614l-.228-.3a4.134 4.134 0 00-.242-.285c.231.437.45.873.655 1.315a12.7 12.7 0 01.539 1.34 6.474 6.474 0 01.186.68 3.355 3.355 0 01.076.673 1.46 1.46 0 01-.116.6.9.9 0 01-.154.247zM4.665 26.574a8.813 8.813 0 00-.414-1.43 9.98 9.98 0 00-.447-1.018 3.719 3.719 0 00-.18-.326c.133.472.256.943.36 1.416a12.578 12.578 0 01.243 1.417 6.614 6.614 0 01.038.7 3.433 3.433 0 01-.069.673 1.485 1.485 0 01-.243.57q.311-.052.67-.125a2.262 2.262 0 00.09-.35 3.457 3.457 0 00.04-.777 5.6 5.6 0 00-.088-.75z"/><path class="h" d="M30.53 26.478a2.264 2.264 0 01-2 .69 21.551 21.551 0 01-3.12-.74 14.012 14.012 0 01-2.248-.929 2.242 2.242 0 01-1.185-2.27 6.263 6.263 0 011.422-3.215c1.993-2.393 5.264-2.955 7.307-1.253s2.084 5.02.09 7.414a5.338 5.338 0 01-.266.303z"/><path class="l" d="M22.769 25.235c.022-.12.049-.238.08-.354a5.724 5.724 0 01.253-.717 8.982 8.982 0 01.709-1.319c.135-.209.276-.414.426-.614l.227-.3q.115-.151.243-.285c-.231.437-.45.873-.656 1.316a12.622 12.622 0 00-.539 1.339 6.324 6.324 0 00-.186.68 3.734 3.734 0 00-.07.558l-.09-.047a2.2 2.2 0 01-.397-.257zM25.684 26.36a.672.672 0 00.05.05l.061.054c.041.038.085.074.125.112q-.246-.071-.5-.151-.212-.067-.414-.138a1.934 1.934 0 01-.121-.777 3.438 3.438 0 01.127-.771 5.523 5.523 0 01.253-.716 9.036 9.036 0 01.709-1.32 10.8 10.8 0 01.426-.613c.075-.1.15-.2.228-.3s.157-.193.242-.286c-.231.437-.45.874-.655 1.316a12.792 12.792 0 00-.54 1.339 6.62 6.62 0 00-.186.68 3.432 3.432 0 00-.076.673 1.465 1.465 0 00.117.6.9.9 0 00.154.248zM27.602 25.124a8.791 8.791 0 01.414-1.43c.09-.231.18-.46.286-.684.053-.111.106-.224.161-.334s.113-.219.18-.326c-.133.473-.256.944-.36 1.416a12.376 12.376 0 00-.243 1.418 6.357 6.357 0 00-.038.7 3.442 3.442 0 00.069.674 1.49 1.49 0 00.242.57 19.147 19.147 0 01-.67-.125 2.192 2.192 0 01-.09-.35 3.462 3.462 0 01-.04-.777 5.6 5.6 0 01.089-.752z"/><ellipse class="m" cx="1.023" cy="1.681" rx="1.023" ry="1.681" transform="translate(8.291 2.317)"/><ellipse class="m" cx="1.023" cy="1.681" rx="1.023" ry="1.681" transform="translate(19.719 2.317)"/><ellipse class="k" cx=".321" cy=".526" rx=".321" ry=".526" transform="translate(8.658 2.715)"/><ellipse class="k" cx=".321" cy=".526" rx=".321" ry=".526" transform="translate(20.101 2.715)"/></g></g></g></svg>