<svg xmlns="http://www.w3.org/2000/svg" width="40" height="40" viewBox="0 0 40 40"><defs><clipPath id="a"><circle cx="20" cy="20" r="20" transform="translate(300 20)" fill="#4e4a68"/></clipPath><style>.d{fill:#ebebf0}.e{fill:#fff5f5}.f{fill:#50666d}.g{fill:#9fc9d6}.h{fill:#8b9dea}</style></defs><g transform="translate(-300 -20)" clip-path="url(#a)"><ellipse cx="24.5" cy="25.5" rx="24.5" ry="25.5" transform="translate(295 15)" fill="#47c6c6"/><g transform="translate(305 27)"><ellipse class="d" cx="12.071" cy="19.476" rx="12.071" ry="19.476" transform="translate(6.061 18.589)"/><ellipse class="d" cx="12.071" cy="19.476" rx="12.071" ry="19.476" transform="translate(0 18.589)"/><path class="d" d="M15.101-.001a8.93 8.93 0 018.9 8.959v20.476a8.93 8.93 0 01-8.9 8.959 8.93 8.93 0 01-8.9-8.959V8.959a8.93 8.93 0 018.9-8.96z"/><ellipse class="e" cx="3.933" cy="3.958" rx="3.933" ry="3.958" transform="translate(7.135 3.559)"/><path class="e" d="M15.056 6.828a3.935 3.935 0 117.748 1.376 3.935 3.935 0 11-7.748-1.376z"/><ellipse class="f" cx=".543" cy=".935" rx=".543" ry=".935" transform="translate(11.529 6.582)"/><ellipse class="f" cx=".543" cy=".935" rx=".543" ry=".935" transform="translate(17.589 6.582)"/><ellipse class="g" cx=".17" cy=".293" rx=".17" ry=".293" transform="translate(11.724 6.803)"/><ellipse class="g" cx=".17" cy=".293" rx=".17" ry=".293" transform="translate(17.791 6.803)"/><path class="h" d="M9.001 15.763a1.591 1.591 0 01-1.55-1.248 1.59 1.59 0 103.1 0 1.592 1.592 0 01-1.55 1.248zM12.999 15.763a1.591 1.591 0 01-1.55-1.248 1.59 1.59 0 103.1 0 1.592 1.592 0 01-1.55 1.248zM17.074 15.763a1.592 1.592 0 01-1.551-1.248 1.59 1.59 0 103.1 0 1.592 1.592 0 01-1.549 1.248zM21.201 15.763a1.591 1.591 0 01-1.55-1.248 1.59 1.59 0 103.1 0 1.592 1.592 0 01-1.55 1.248zM8.893 19.37a1.592 1.592 0 01-1.551-1.248 1.59 1.59 0 103.1 0 1.592 1.592 0 01-1.549 1.248zM12.971 19.37a1.591 1.591 0 01-1.55-1.248 1.59 1.59 0 103.1 0 1.592 1.592 0 01-1.55 1.248zM17.099 19.37a1.592 1.592 0 01-1.551-1.248 1.59 1.59 0 103.1 0 1.592 1.592 0 01-1.549 1.248zM8.893 22.978a1.592 1.592 0 01-1.551-1.248 1.59 1.59 0 103.1 0 1.592 1.592 0 01-1.549 1.248zM8.893 26.585a1.592 1.592 0 01-1.551-1.248 1.59 1.59 0 103.1 0 1.592 1.592 0 01-1.549 1.248zM13.022 22.978a1.592 1.592 0 01-1.55-1.248 1.59 1.59 0 103.1 0 1.591 1.591 0 01-1.55 1.248zM21.148 39.313a1.593 1.593 0 001.551-1.248 1.59 1.59 0 11-3.1 0 1.592 1.592 0 001.549 1.248zM17.153 39.313a1.592 1.592 0 001.551-1.248 1.59 1.59 0 11-3.1 0 1.592 1.592 0 001.549 1.248zM13.076 39.313a1.591 1.591 0 001.55-1.248 1.589 1.589 0 11-3.1 0 1.592 1.592 0 001.55 1.248zM8.948 39.313a1.592 1.592 0 001.551-1.248 1.59 1.59 0 11-3.1 0 1.592 1.592 0 001.549 1.248zM21.255 42.921a1.592 1.592 0 001.55-1.248 1.59 1.59 0 11-3.1 0 1.591 1.591 0 001.55 1.248zM17.178 42.921a1.592 1.592 0 001.551-1.248 1.59 1.59 0 11-3.1 0 1.592 1.592 0 001.549 1.248zM13.05 42.921a1.591 1.591 0 001.55-1.248 1.59 1.59 0 11-3.1 0 1.591 1.591 0 001.55 1.248zM21.255 46.533a1.592 1.592 0 001.55-1.248 1.59 1.59 0 11-3.1 0 1.592 1.592 0 001.55 1.248zM21.255 50.135a1.592 1.592 0 001.546-1.251 1.59 1.59 0 11-3.1 0 1.591 1.591 0 001.554 1.251zM17.13 46.533a1.592 1.592 0 001.55-1.248 1.59 1.59 0 11-3.1 0 1.592 1.592 0 001.55 1.248z"/><path d="M13.781 9.149c0-.934 2.432-.934 2.432 0a4.06 4.06 0 01-1.215 2.274 4.059 4.059 0 01-1.217-2.274z" fill="#607882"/></g></g></svg>