<svg xmlns="http://www.w3.org/2000/svg" width="40" height="40" viewBox="0 0 40 40"><defs><clipPath id="a"><circle cx="20" cy="20" r="20" transform="translate(300 20)" fill="#4e4a68"/></clipPath><clipPath id="b"><path fill="none" d="M0 0h18.816v66.299H0z"/></clipPath><style>.g{fill:#ebebf0}.i{fill:#ffdeeb}.j{fill:#607882}.l{fill:#50666d}.m{fill:#9fc9d6}</style></defs><g transform="translate(-300 -20)" style="isolation:isolate" clip-path="url(#a)"><circle cx="20" cy="20" r="20" transform="translate(300 20)" fill="#c6475b"/><g clip-path="url(#b)" transform="translate(311 6)"><g transform="translate(0 -.086)"><path class="g" d="M15.464 36.637a27.836 27.836 0 01-5.531.532 26.643 26.643 0 01-6.664-.8c2 6.123.828 17.271-3.269 29.927h18.816c-4.039-12.473-5.239-23.481-3.352-29.659z"/><path d="M13.505 66.3V29.842a1.036 1.036 0 00-1.041-1.031H6.392a1.036 1.036 0 00-1.041 1.031V66.3z" fill="#fff5f5"/><path class="g" d="M17.088 35.59c0-7.284-3.573-12.671-7.98-12.671s-7.98 5.391-7.98 12.671v.76c0 1.788.236 3.237.525 3.237.169 0 .317-.492.415-1.253 2.827 3.624 11.248 3.624 14.078 0 .095.761.246 1.253.415 1.253.289 0 .52-1.448.52-3.237.007-.188.007-.684.007-.76z"/><path class="g" d="M3.669 34.881s-2.392-3.4-2.827-14.283S.812-.086 2.003-.002s5.256 7.529 5.364 10.651-4.145 13.206-3.698 24.232z"/><path class="i" d="M5.638 10.766c-.087-2.446-2.6-7.553-4.261-9.681C.683 3.914.494 11.908.841 20.599a52.041 52.041 0 001.174 9.691c.62-9.09 3.716-16.857 3.623-19.524z"/><path class="g" d="M14.65 34.881s2.391-3.4 2.826-14.283.031-20.684-1.161-20.6-5.256 7.529-5.363 10.651 4.146 13.206 3.698 24.232z"/><path class="i" d="M12.68 10.766c.087-2.446 2.6-7.553 4.26-9.681.694 2.829.883 10.823.536 19.514a52.055 52.055 0 01-1.174 9.691c-.617-9.09-3.714-16.857-3.622-19.524z"/><path class="j" d="M9.639 35.957a1.8 1.8 0 01-1.139-.44 2.593 2.593 0 00.372.43 1.467 1.467 0 00.989.429c1.01 0 1.86-1.238 2.113-2.92-.39 1.471-1.288 2.501-2.335 2.501z"/><path d="M12.042 36.666l-.557-1.614a2 2 0 01-1.638 1.332 1.264 1.264 0 01-.383-.06l.376 1.087a.743.743 0 00.938.455l.8-.272a.732.732 0 00.464-.928z" fill="#e8dcac"/><path class="j" d="M9.093 32.334a2.868 2.868 0 01-2.27-1.087 2.431 2.431 0 004.54 0 2.866 2.866 0 01-2.27 1.087z"/><path class="j" d="M9.244 32.595a3.71 3.71 0 01-.386.059c.266 1.511 1.024 2.663 1.961 2.932a5.7 5.7 0 01-1.575-2.991z"/><ellipse class="l" cx=".987" cy="1.673" rx=".987" ry="1.673" transform="translate(4.552 26.913)"/><ellipse class="l" cx=".987" cy="1.673" rx=".987" ry="1.673" transform="translate(12.33 26.913)"/><ellipse class="m" cx=".31" cy=".524" rx=".31" ry=".524" transform="translate(4.907 27.309)"/><ellipse class="m" cx=".31" cy=".524" rx=".31" ry=".524" transform="translate(12.698 27.309)"/></g></g></g></svg>