<svg xmlns="http://www.w3.org/2000/svg" xmlns:xlink="http://www.w3.org/1999/xlink" viewBox="0 0 888.91 888.91"><defs><clipPath id="clip-path"><circle cx="444.96" cy="444.96" r="444.46" fill="none"/></clipPath><symbol id="Sealion-2" data-name="Sealion" viewBox="0 0 804.15 629.39"><path class="cls-2" d="M46.96 344.07h135.32v281.11H46.96z"/><path class="cls-3" d="M619.91 436.82c-169.6-132.22-306.48-27.48-343.73-122.13-9.82-25-20-98.1-20-183.88v-19C256.18 50.34 205.84 0 144.32 0 82.79 0 32.45 50.34 32.45 111.86v94.54q-1.53 41.41.29 90.64c6.89 191.38 139.09 328.1 139.09 328.1l632.32 4.25S789.52 569 619.91 436.82z"/><path class="cls-4" d="M685 628.59c-12.9-22.13-49-69.85-147.13-146.39-141.8-110.54-202.53-57.82-266.58-113.76-31.55-27.55-37.33-104-37.52-162.83A88.87 88.87 0 00145.16 117h-9.82c-48.74 0-88.62 39.88-88.62 88.61v83.95q-1.29 34.63.24 75.78a369 369 0 004.25 44c38 130.35 120.62 215.81 120.62 215.81z"/><path class="cls-5" d="M115 83.27c0-21 55.14-21 55.14 0s-12.34 38.11-27.56 38.11S115 104.32 115 83.27z"/><path class="cls-6" d="M136.45 118.06c-9.43-4.37-16.23-16.69-16.23-31.19 0-17.91 46.17-18.17 47.61-.84v-1.81c0-19.27-50.51-19.27-50.51 0 .03 16.33 8.17 30.06 19.13 33.84z"/><ellipse class="cls-7" cx="124.8" cy="51.91" rx="11.38" ry="19.48"/><ellipse class="cls-7" cx="160.42" cy="51.91" rx="11.38" ry="19.48"/><ellipse class="cls-6" cx="121.08" cy="43.13" rx="3.57" ry="6.1"/><ellipse class="cls-6" cx="156.85" cy="43.13" rx="3.57" ry="6.1"/><path class="cls-2" d="M176.87 89.6a90.16 90.16 0 0116.56-2 111.7 111.7 0 0116.75.66 107.7 107.7 0 0116.57 3.1c2.75.66 5.41 1.61 8.1 2.5a19.71 19.71 0 012 .73l2 .8 2 .8c.65.26 1.31.53 1.95.86a73.3 73.3 0 017.55 4.1c1.2.79 2.46 1.48 3.6 2.34l3.43 2.57A82.19 82.19 0 01269.45 118a87 87 0 0116.22 29.17 133.45 133.45 0 00-19.72-26 98 98 0 00-12.09-10.53l-3.26-2.29c-1.08-.77-2.27-1.37-3.39-2.07a72 72 0 00-7-3.72 119.67 119.67 0 00-15-5.68c-2.55-.86-5.18-1.47-7.78-2.19-1.31-.34-2.64-.59-3.95-.9l-2-.45-2-.37c-5.31-1.06-10.71-1.83-16.15-2.38s-10.91-.92-16.46-.99zM176.87 99.12a89.83 89.83 0 0116.4 3 112.84 112.84 0 0115.81 5.58 108.84 108.84 0 0114.92 7.88c2.43 1.45 4.69 3.14 7 4.78.58.4 1.14.84 1.68 1.29l1.64 1.35 1.65 1.34a19.21 19.21 0 011.6 1.41 71.16 71.16 0 016 6.15c.91 1.1 1.91 2.14 2.74 3.3l2.52 3.46a82.76 82.76 0 018.08 15 86.88 86.88 0 016.86 32.66 133.65 133.65 0 00-11.14-30.67 98.5 98.5 0 00-8.44-13.65l-2.43-3.15c-.8-1.06-1.76-2-2.63-3a68.81 68.81 0 00-5.58-5.62 118.47 118.47 0 00-12.67-9.88c-2.19-1.57-4.51-2.93-6.79-4.39-1.14-.71-2.34-1.34-3.5-2l-1.76-1L207 112c-4.76-2.59-9.68-4.92-14.71-7s-10.14-4.18-15.42-5.88zM108.8 89.6c-5.55.07-11 .37-16.46 1s-10.83 1.32-16.15 2.38l-2 .37-2 .45c-1.31.31-2.64.56-3.95.9-2.6.72-5.22 1.33-7.78 2.19a119.67 119.67 0 00-15 5.68 72 72 0 00-7 3.72c-1.12.7-2.31 1.3-3.39 2.07l-3.26 2.29a98 98 0 00-12.09 10.53A133.45 133.45 0 000 147.13 87 87 0 0116.22 118a82.19 82.19 0 0112.14-11.88l3.43-2.57c1.14-.86 2.4-1.55 3.6-2.34a73.3 73.3 0 017.55-4.1 21.18 21.18 0 012-.86l2-.8 2-.8a19.71 19.71 0 012-.73c2.69-.89 5.35-1.84 8.1-2.5a107.7 107.7 0 0116.57-3.1 111.7 111.7 0 0116.75-.66 90.16 90.16 0 0116.44 1.94zM108.8 99.12c-5.28 1.7-10.42 3.61-15.44 5.78s-10 4.46-14.72 7l-1.8.94-1.76 1c-1.16.69-2.36 1.32-3.5 2-2.28 1.46-4.6 2.82-6.79 4.39a118.47 118.47 0 00-12.67 9.88 68.81 68.81 0 00-5.58 5.62c-.87 1-1.82 1.92-2.63 3L41.48 142A98.5 98.5 0 0033 155.6a133.65 133.65 0 00-11.1 30.67 86.88 86.88 0 016.86-32.66 82.76 82.76 0 018.08-15l2.52-3.46c.83-1.16 1.83-2.2 2.74-3.3a71.16 71.16 0 016-6.15 19.21 19.21 0 011.6-1.41l1.66-1.29 1.64-1.35c.55-.45 1.1-.89 1.68-1.29 2.31-1.64 4.57-3.33 7-4.78a108.84 108.84 0 0114.91-7.87 112.84 112.84 0 0115.81-5.58 90 90 0 0116.4-3.01z"/><path class="cls-5" d="M140.7 157.92c-8.66 0-16.84-3.38-24.07-9.38 7.88 11.45 17.86 18.29 28.71 18.29 21.32 0 39.27-26.38 44.59-62.24-8.18 31.41-27.14 53.33-49.23 53.33z"/><path class="cls-3" d="M327.39 358.84l53.38-137.71 8.64-22.28 53.38-137.71A14.9 14.9 0 01462.13 53l13.54 5.25a14.88 14.88 0 018.76 19.08l-8.87 22.9A14.9 14.9 0 01494.9 92l13.53 5.25a14.9 14.9 0 018.77 19.09l-12 30.88a14.9 14.9 0 0119.37-8.22l13.54 5.25a14.88 14.88 0 018.76 19.08L534 196.7l6.76 2.63a14.88 14.88 0 018.77 19.08l-14.31 36.94-47.7 123.06-14.32 36.93a14.9 14.9 0 01-19.34 8.19l-117.65-45.6a14.9 14.9 0 01-8.82-19.09z"/><path class="cls-4" d="M394 516.88l-76.52-29.66a12 12 0 01-6.86-15.53L415 202.33a12 12 0 0115.53-6.85l76.53 29.67a12 12 0 016.85 15.52L409.5 510a12 12 0 01-15.5 6.88z"/><path class="cls-4" d="M341.5 393.27l47.74-123.16 7.76-19.93L444.7 127c2.6-6.71 9.15-10.48 14.56-8.39l9.47 3.67c5.41 2.1 7.71 9.3 5.11 16l-7.94 20.52c2.6-6.71 9.15-10.48 14.56-8.38l9.47 3.67c5.41 2.09 7.71 9.3 5.11 16l-10.71 27.62c2.6-6.71 9.15-10.49 14.56-8.39l9.47 3.67c5.41 2.1 7.71 9.3 5.11 16l-11.56 29.83 4.73 1.83c5.41 2.1 7.71 9.3 5.11 16l-12.81 33-42.66 110.11-12.8 33c-2.6 6.7-9.16 10.48-14.56 8.38l-82.31-31.9c-5.41-2.06-7.71-9.24-5.11-15.97z"/></symbol><style>.cls-2{fill:#5f9f83}.cls-3{fill:#64adc8}.cls-4{fill:#fff0ab}.cls-5{fill:#607882}.cls-6{fill:#9fc9d6}.cls-7{fill:#50666d}</style></defs><g id="Layer_2" data-name="Layer 2"><g id="Layer_9" data-name="Layer 9" fill="#98f8ff"><circle cx="444.96" cy="444.96" r="444.46" stroke="#66bc7c" stroke-miterlimit="10"/><circle cx="444.96" cy="444.96" r="444.46"/></g><g clip-path="url(#clip-path)" id="sealion"><use width="804.15" height="629.39" transform="matrix(1.3 0 0 1.3 110.57 115.09)" xlink:href="#Sealion-2"/></g></g></svg>