<svg xmlns="http://www.w3.org/2000/svg" width="40" height="40" viewBox="0 0 40 40"><defs><clipPath id="a"><circle cx="20" cy="20" r="20" fill="#4e4a68"/></clipPath><style>.d{fill:#b5c7ff}.e{fill:#8b9dea}.f{fill:#ffc6f3}.h{fill:#9fc9d6}.i{fill:#50666d}</style></defs><g clip-path="url(#a)"><ellipse cx="26" cy="25.5" rx="26" ry="25.5" transform="translate(-8 -5)" fill="#fc7eb9"/><g transform="translate(8 3)"><path class="d" d="M22.144 40.884a29.625 29.625 0 00.643-6.2c0-10.311-5.1-18.67-11.394-18.67S-.001 24.373-.001 34.684a29.579 29.579 0 00.644 6.2z"/><path class="e" d="M7.61 6.885a1.377 1.377 0 00.338-1.928q-.033-.047-.07-.091a22.7 22.7 0 01-2.29-3.61C4.84-.174 2.927-1.036 2.476 2.437c-.548 4.219.158 7.905 5.134 4.448z"/><path class="f" d="M7.883 8.718a1.377 1.377 0 00.338-1.928q-.033-.047-.07-.091a22.947 22.947 0 01-2.29-3.61C5.115 1.659 3.2.797 2.749 4.27c-.55 4.224.156 7.909 5.134 4.448z"/><path class="e" d="M14.677 6.88a1.376 1.376 0 01-.339-1.927q.034-.048.071-.092a22.894 22.894 0 002.289-3.61c.746-1.43 2.661-2.292 3.112 1.18.55 4.225-.155 7.911-5.133 4.449z"/><path class="f" d="M14.405 8.718a1.376 1.376 0 01-.339-1.927q.034-.048.071-.092a22.886 22.886 0 002.289-3.61c.746-1.43 2.661-2.292 3.112 1.181.55 4.224-.156 7.909-5.133 4.448z"/><path class="e" d="M11.394 39.12c4.8 0 7.292-11.634 7.292-11.634s-.153 2.282.451 2.326c1.42.1.97-12.5.97-12.5s.449 1.027.878.871c.566-.206-.115-3.037-.115-3.037s.993 1.823 1.455 1.548c.552-.331-1.276-4.882-2.665-8.117a5.345 5.345 0 00-4.917-3.223h-6.7a5.345 5.345 0 00-4.917 3.223C1.737 11.809-.092 16.36.461 16.692c.462.277 1.455-1.548 1.455-1.548s-.679 2.831-.116 3.037c.429.156.878-.871.878-.871s-.451 12.6.97 12.5c.6-.044.451-2.326.451-2.326S6.589 39.12 11.39 39.12z"/><path class="d" d="M7.169 26.051V14.682a3.628 3.628 0 013.632-3.6h1.188a3.628 3.628 0 013.632 3.6v11.369a3.628 3.628 0 01-3.632 3.6h-1.187a3.628 3.628 0 01-3.633-3.6z"/><path d="M6.367 19.519c0-3.807 10.054-3.807 10.054 0s-2.251 6.892-5.025 6.892-5.029-3.082-5.029-6.892z" fill="#607882"/><path class="h" d="M10.326 25.613c-1.661-.765-2.858-2.918-2.858-5.452 0-3.13 8.134-3.176 8.388-.146 0-.106.007-.211.007-.318 0-3.365-8.9-3.365-8.9 0-.002 2.855 1.432 5.254 3.363 5.916z"/><ellipse class="i" cx=".772" cy="1.311" rx=".772" ry="1.311" transform="translate(9.413 6.602)"/><ellipse class="i" cx=".772" cy="1.311" rx=".772" ry="1.311" transform="translate(11.83 6.602)"/><ellipse class="h" cx=".242" cy=".411" rx=".242" ry=".411" transform="translate(9.691 6.912)"/><ellipse class="h" cx=".242" cy=".411" rx=".242" ry=".411" transform="translate(12.118 6.912)"/><path d="M11.414 28.218a6.94 6.94 0 01-1.842-.24v5.743a1.633 1.633 0 001.635 1.622h.414a1.633 1.633 0 001.635-1.622v-5.743a6.94 6.94 0 01-1.842.24z" fill="#ffbfff"/></g></g></svg>